<?xml version="1.0" encoding="UTF-8"?>
<svg xmlns="http://www.w3.org/2000/svg" xmlns:xlink="http://www.w3.org/1999/xlink" width="756.2pt" height="277.9pt" viewBox="0 0 756.2 277.9" version="1.1">
<defs>
<clipPath id="clip1">
  <path d="M 291 140 L 432 140 L 432 277.898438 L 291 277.898438 Z M 291 140 "/>
</clipPath>
<clipPath id="clip2">
  <path d="M 492 0 L 756.199219 0 L 756.199219 277.898438 L 492 277.898438 Z M 492 0 "/>
</clipPath>
</defs>
<g id="surface1">
<path style=" stroke:none;fill-rule:evenodd;fill:rgb(88.28125%,3.921509%,13.330078%);fill-opacity:1;" d="M 605.5 92.964844 L 605.5 94.203125 C 605.5 98.371094 610.109375 102.265625 614.183594 102.265625 C 618.550781 102.265625 623.488281 98.953125 623.488281 94.824219 L 623.488281 92.339844 C 623.488281 88.09375 618.96875 86.136719 614.804688 86.136719 L 614.183594 86.136719 C 609.136719 86.136719 605.5 88.132813 605.5 92.964844 Z M 605.5 92.964844 "/>
<path style=" stroke:none;fill-rule:evenodd;fill:rgb(88.28125%,3.921509%,13.330078%);fill-opacity:1;" d="M 521.140625 215.160156 C 530.480469 215.160156 533.203125 199.753906 535.285156 192.089844 C 537.9375 182.339844 542.226563 174.835938 547.695313 167.902344 C 550.910156 163.828125 562.078125 153.105469 566.3125 149.921875 C 569.941406 147.199219 585.972656 136.855469 586.269531 133.28125 L 583.167969 133.28125 C 571.132813 133.28125 546.917969 154.710938 543.46875 154.992188 C 543.148438 151.128906 540.382813 141.964844 536.648438 141.964844 L 536.027344 141.964844 C 531.460938 141.964844 530.0625 152.851563 528.8125 157.085938 C 527.128906 162.789063 525.554688 168.230469 523.886719 173.867188 C 522.21875 179.492188 519.664063 186.179688 518.699219 191.011719 C 517.523438 196.886719 513.074219 202.257813 513.074219 207.097656 L 513.074219 208.339844 C 513.074219 212.210938 514.851563 215.160156 518.65625 215.160156 Z M 521.140625 215.160156 "/>
<path style=" stroke:none;fill-rule:evenodd;fill:rgb(88.28125%,3.921509%,13.330078%);fill-opacity:1;" d="M 583.167969 207.71875 C 589.421875 203.53125 592.289063 199.460938 595.042969 191.679688 C 597.039063 186.042969 600.539063 176.964844 601.816406 171.15625 C 602.503906 168.023438 608.265625 155.84375 610.035156 151.464844 C 612.472656 145.4375 614.804688 137.078125 614.804688 128.9375 C 614.804688 125.359375 613.78125 119.015625 610.464844 119.015625 L 607.359375 119.015625 C 600.621094 119.015625 593.585938 147.730469 591.152344 154.914063 C 589.894531 158.632813 581.308594 193.734375 581.308594 196.550781 L 581.308594 203.378906 C 581.308594 205.652344 582.269531 206.378906 583.167969 207.71875 Z M 583.167969 207.71875 "/>
<path style=" stroke:none;fill-rule:evenodd;fill:rgb(88.28125%,3.921509%,13.330078%);fill-opacity:1;" d="M 365.445313 172.359375 C 365.445313 137.34375 420.648438 142.179688 420.648438 135.761719 C 420.648438 135.007813 419.367188 133.902344 418.167969 133.902344 L 411.347656 133.902344 C 386.539063 133.902344 349.9375 152.308594 349.9375 176.085938 L 349.9375 177.324219 C 349.9375 188.996094 363.625 199.652344 375.367188 199.652344 L 380.953125 199.652344 C 384.527344 199.652344 390.253906 195.421875 390.253906 191.589844 C 390.253906 179.988281 365.445313 184.882813 365.445313 172.359375 Z M 365.445313 172.359375 "/>
<path style=" stroke:none;fill-rule:evenodd;fill:rgb(88.28125%,3.921509%,13.330078%);fill-opacity:1;" d="M 655.746094 184.144531 C 655.746094 176.269531 670.828125 161.3125 676.113281 157.371094 C 682.40625 152.679688 683.207031 152.1875 690.691406 148.378906 C 693.4375 146.976563 705.988281 143.351563 705.988281 140.726563 C 705.988281 139.855469 705.144531 139.484375 704.128906 139.484375 C 678.308594 139.484375 634.65625 172.609375 634.65625 197.792969 L 634.65625 203.378906 C 634.65625 206.578125 638.605469 211.441406 642.097656 211.441406 L 646.441406 211.441406 C 669.117188 211.441406 696.636719 169.105469 709.710938 168.019531 C 709.710938 173.386719 703.730469 188.179688 702.140625 193.941406 C 700.433594 200.128906 695.445313 213.925781 695.445313 220.746094 C 695.445313 221.941406 695.640625 221.847656 696.066406 222.605469 C 700.605469 221.394531 710.460938 194.734375 712.894531 188.570313 C 716.667969 179.011719 724.597656 162.566406 724.597656 150.03125 L 724.597656 149.410156 C 724.597656 145.503906 721.78125 140.726563 718.394531 140.726563 C 705.441406 140.726563 677.058594 189.730469 661.328125 189.730469 C 659.398438 189.730469 655.746094 186.59375 655.746094 184.765625 Z M 655.746094 184.144531 "/>
<path style=" stroke:none;fill-rule:evenodd;fill:rgb(88.28125%,3.921509%,13.330078%);fill-opacity:1;" d="M 225.253906 184.765625 C 225.253906 175.355469 239.09375 161.671875 245.097656 157.464844 C 250.703125 153.535156 252.722656 151.589844 259.578125 148.378906 C 263.078125 146.742188 273.925781 143.492188 275.5 141.34375 C 274.78125 140.367188 274.0625 139.484375 272.398438 139.484375 C 259.082031 139.484375 236.488281 153.078125 228.253906 159.230469 C 220.101563 165.324219 203.542969 184.40625 203.542969 197.792969 L 203.542969 199.035156 C 203.542969 206.523438 206.050781 212.058594 213.46875 212.058594 L 214.710938 212.058594 C 236.53125 212.058594 267.585938 168.640625 278.601563 168.640625 L 271.398438 193.957031 L 270.449219 195.859375 C 270.535156 203.230469 264.953125 212.027344 264.953125 221.363281 C 264.953125 221.453125 265.566406 222.59375 265.574219 222.605469 C 271.273438 218.789063 293.488281 164.203125 293.488281 153.132813 L 293.488281 148.171875 C 293.488281 145.027344 289.816406 140.726563 287.285156 140.726563 L 286.664063 140.726563 C 275.660156 140.726563 246.128906 189.730469 230.839844 189.730469 C 228.664063 189.730469 225.253906 187.253906 225.253906 184.765625 Z M 225.253906 184.765625 "/>
<path style=" stroke:none;fill-rule:evenodd;fill:rgb(88.28125%,3.921509%,13.330078%);fill-opacity:1;" d="M 446.703125 183.527344 C 446.703125 175.921875 461.949219 161.398438 467.0625 157.363281 C 473.015625 152.664063 474.566406 151.984375 481.648438 148.378906 C 484.738281 146.800781 496.949219 143.394531 496.949219 140.726563 C 496.949219 139.855469 496.101563 139.484375 495.085938 139.484375 L 493.847656 139.484375 C 480.71875 139.484375 458.894531 153.253906 450.167969 159.078125 C 441.898438 164.59375 425.613281 184.613281 425.613281 197.792969 L 425.613281 200.273438 C 425.613281 206.082031 428.890625 212.058594 434.296875 212.058594 L 437.398438 212.058594 C 447.878906 212.058594 464.488281 196.984375 471.269531 191.964844 C 477.472656 187.367188 493.265625 168.636719 500.667969 168.019531 C 500.667969 173.253906 495.039063 188.675781 493.3125 194.160156 C 491.726563 199.210938 486.402344 214.933594 486.402344 220.128906 L 486.402344 220.746094 C 486.402344 221.941406 486.597656 221.847656 487.023438 222.605469 C 492.296875 221.203125 503.464844 190.292969 506.164063 183.441406 C 508.402344 177.761719 523.566406 141.34375 508.734375 141.34375 L 507.492188 141.34375 C 498.007813 141.34375 466.265625 189.730469 452.90625 189.730469 L 452.285156 189.730469 C 450.164063 189.730469 446.703125 186.453125 446.703125 183.527344 Z M 446.703125 183.527344 "/>
<path style=" stroke:none;fill-rule:evenodd;fill:rgb(88.28125%,3.921509%,13.330078%);fill-opacity:1;" d="M 300.3125 215.160156 C 310.027344 215.160156 312.0625 199.546875 314.507813 192.140625 C 316.636719 185.6875 315.769531 184.128906 319.664063 178.6875 C 322.039063 175.371094 324.164063 170.691406 326.863281 167.277344 C 332.582031 160.058594 340.382813 155.558594 346.375 149.570313 C 348.125 147.820313 370.203125 133.28125 363.582031 133.28125 L 362.34375 133.28125 C 349.3125 133.28125 329.746094 153.09375 322.644531 154.992188 C 321.089844 151.753906 320.113281 142.589844 315.820313 142.589844 C 307.882813 142.589844 308.402344 161.179688 304.652344 166.777344 L 303.160156 173.703125 C 302.792969 183.980469 291.628906 200.285156 291.628906 208.339844 C 291.628906 212.867188 295.160156 215.160156 299.691406 215.160156 Z M 300.3125 215.160156 "/>
<path style=" stroke:none;fill-rule:evenodd;fill:rgb(88.28125%,3.921509%,13.330078%);fill-opacity:1;" d="M 181.835938 241.839844 C 181.835938 234.78125 187.109375 213.992188 188.613281 206.433594 C 191.003906 194.441406 193.472656 183.566406 195.621094 171.261719 C 197.628906 159.757813 199.773438 148.261719 201.929688 135.390625 C 203.839844 124.007813 207.265625 110.863281 207.265625 98.546875 L 207.265625 91.101563 C 207.265625 86.277344 203.871094 83.039063 199.203125 83.039063 C 185.046875 83.039063 176.554688 102.316406 169.269531 110.789063 C 164.75 116.050781 149.109375 142.589844 143.375 142.589844 L 142.753906 142.589844 C 138.175781 142.589844 140.894531 121.554688 140.894531 116.535156 C 140.894531 108.464844 136.96875 100.40625 129.730469 100.40625 L 127.246094 100.40625 C 118.03125 100.40625 98.789063 130.460938 92.957031 138.070313 C 90.671875 141.050781 87.875 145.628906 85.679688 148.78125 C 83.171875 152.378906 80.507813 155.339844 77.988281 159.078125 C 74.289063 164.566406 66.953125 174.503906 62.59375 179.042969 C 58.957031 182.839844 48.746094 194.496094 46.109375 198.535156 C 41.855469 205.050781 34.933594 211.320313 30.03125 217.8125 C 24.605469 224.992188 0.710938 251.683594 0.0859375 259.207031 C 14.9375 257.96875 97.429688 145.6875 111.121094 145.6875 C 114.015625 145.6875 115.460938 147.132813 115.460938 150.03125 L 115.460938 153.132813 C 115.460938 166.347656 108.019531 183.191406 108.019531 197.171875 L 108.019531 200.894531 C 108.019531 204.792969 109.667969 208.339844 113.601563 208.339844 L 114.222656 208.339844 C 130.980469 208.339844 172.578125 126.460938 183.074219 126.460938 C 183.402344 126.460938 184.4375 127.351563 184.933594 127.699219 C 184.933594 131.175781 185.800781 132.003906 185.554688 135.140625 L 178.320313 227.535156 L 178.730469 243.695313 Z M 181.835938 241.839844 "/>
<g clip-path="url(#clip1)" clip-rule="nonzero">
<path style=" stroke:none;fill-rule:evenodd;fill:rgb(88.28125%,3.921509%,13.330078%);fill-opacity:1;" d="M 291.628906 277.8125 C 308.582031 277.8125 333.417969 269.320313 344.972656 263.546875 C 361.164063 255.457031 371.945313 247.359375 384.207031 235.164063 C 388.476563 230.917969 395.84375 221.394531 399.3125 216.15625 C 403.941406 209.164063 407.441406 201.863281 411.851563 195.195313 C 414.988281 190.457031 431.816406 152.851563 431.816406 147.546875 L 431.816406 143.210938 C 431.816406 141.300781 430 140.726563 428.09375 140.726563 C 406.84375 140.726563 405.304688 165.359375 399.132813 180.617188 C 391.625 199.179688 386.171875 209.832031 374.917969 224.636719 C 366.800781 235.316406 350.898438 250.363281 338.898438 256.847656 C 331.289063 260.960938 324.550781 264.808594 316.191406 268.261719 C 311.960938 270.007813 292.421875 274.835938 291.628906 277.8125 Z M 291.628906 277.8125 "/>
</g>
<g clip-path="url(#clip2)" clip-rule="nonzero">
<path style=" stroke:none;fill-rule:evenodd;fill:rgb(88.28125%,3.921509%,13.330078%);fill-opacity:1;" d="M 676.214844 43.339844 C 676.214844 34.015625 683.660156 19.863281 683.660156 8.601563 L 683.660156 1.777344 C 683.660156 0.585938 683.464844 0.671875 683.039063 -0.078125 C 676.191406 1.746094 667.179688 36.054688 662.5625 43.953125 C 656.519531 54.296875 653.171875 51.621094 639.574219 53.21875 C 630.375 54.296875 617.503906 53.199219 608.847656 54.753906 C 599.714844 56.386719 588.59375 56.257813 578.824219 56.980469 C 569.371094 57.675781 558.746094 58.800781 549.054688 59.46875 C 539.351563 60.136719 528.816406 60.671875 519.417969 62.089844 C 514.949219 62.757813 509.894531 63.113281 505.152344 63.949219 C 500.761719 64.722656 496.753906 66.5625 492.605469 67.53125 L 492.605469 68.769531 L 508.070313 70.976563 L 535.40625 70.632813 L 633.402344 67.261719 L 647.0625 67.53125 C 648.507813 67.53125 650.164063 69.183594 650.164063 70.632813 C 650.164063 76.515625 623.292969 161.265625 619.574219 170.304688 C 615 181.417969 590.613281 260.714844 590.613281 270.988281 L 590.613281 275.332031 C 590.613281 276.527344 590.808594 276.433594 591.234375 277.191406 C 598.285156 272.46875 637.539063 155.691406 644.957031 136.761719 C 651.003906 121.328125 662.601563 74.527344 673.101563 68.140625 C 686.601563 59.929688 749.246094 64.941406 756.234375 54.503906 C 748.273438 50.683594 727.800781 50.78125 715.292969 50.78125 C 706.414063 50.78125 676.214844 53.796875 676.214844 45.820313 Z M 676.214844 43.339844 "/>
</g>
</g>
</svg>
